PathFileType	4	(X/Y/Z)	Patient4_TMGait_0pt7_01_left_30.trc.trc
DataRate	CameraRate	NumFrames	NumMarkers	Units	OrigDataRate	OrigDataStartFrame	OrigNumFrames
88.050314465409	88.050314465409	4	33	mm	88.050314465409	53	       141
Frame#	Time	Sacral			L.Shoulder			Chest			R.Shoulder			Neck			R.ASIS			L.ASIS			R.Thigh.Superior			R.Thigh.Lateral			R.Thigh.Inferior			R.Patella			L.Thigh.Superior			L.Thigh.Lateral			L.Thigh.Inferior			L.Patella			L.Shank.Superior			L.Shank.Lateral			L.Shank.Inferior			R.Shank.Superior			R.Shank.Lateral			R.Shank.Inferior			R.Heel			R.Midfoot.Superior			R.Midfoot.Lateral			R.Toe			L.Heel			L.Midfoot.Lateral			L.Midfoot.Superior			L.Toe			L.Elbow			L.Wrist			R.Elbow			R.Wrist			
		X1	Y1	Z1	X2	Y2	Z2	X3	Y3	Z3	X4	Y4	Z4	X5	Y5	Z5	X6	Y6	Z6	X7	Y7	Z7	X8	Y8	Z8	X9	Y9	Z9	X10	Y10	Z10	X11	Y11	Z11	X12	Y12	Z12	X13	Y13	Z13	X14	Y14	Z14	X15	Y15	Z15	X16	Y16	Z16	X17	Y17	Z17	X18	Y18	Z18	X19	Y19	Z19	X20	Y20	Z20	X21	Y21	Z21	X22	Y22	Z22	X23	Y23	Z23	X24	Y24	Z24	X25	Y25	Z25	X26	Y26	Z26	X27	Y27	Z27	X28	Y28	Z28	X29	Y29	Z29	X30	Y30	Z30	X31	Y31	Z31	X32	Y32	Z32	X33	Y33	Z33	

53	35.230571428571	781.083756620189	1016.981364906794	467.707258909140	987.046658780935	1427.377291728223	276.361011410901	1081.680390472963	1357.322872592803	443.478442818920	998.711682521793	1445.483797387727	611.330522142918	990.799161863041	1495.480401299490	429.419815987406	1001.188583490134	944.914099287701	591.480017659389	998.459185333142	962.269905841285	317.118833618203	1083.719754645085	778.688043874620	569.936543691186	1041.326700249258	658.415842533633	643.842949694223	1137.588329033269	620.131978094512	571.850258206335	1154.342942186007	504.421948308536	594.020875484457	1041.312659199858	753.161752865521	342.677290496743	949.646049841235	640.095004971106	285.822847399317	1030.392082987163	559.973524341139	350.790413014647	1028.657834840202	491.261886252044	361.764148532054	1002.362136658262	420.209041322001	353.222855473686	914.852734107446	306.212795881093	298.368613922418	961.770323658062	195.603312983974	373.697280974560	1072.213820437210	432.887106514387	595.731071751605	944.072213770614	405.392283897590	648.794976605733	922.604498008731	298.306377147844	598.745440861805	718.282629529994	254.901432916488	560.702025752589	878.793433092397	179.603505383629	604.937705705907	768.629948068645	188.985826725212	635.250921809266	932.199922264010	61.991076088091	633.250665255251	828.910720095106	39.172521543198	408.092518870591	909.227551737504	36.196976478066	333.549941296664	990.441971878932	96.466528864941	365.602534849354	1120.588790504593	41.879620687231	348.442094292334	982.285721817539	1082.687377472938	144.306329949148	1124.239600118837	862.000302300749	160.814093180819	982.356894088457	1103.433037742035	752.386465173072	1117.046097103131	877.602860134405	761.278385325282	
54	35.241928571429	780.892184358798	1017.358784155641	467.338377777927	988.104370943497	1428.000416118778	276.760270014034	1081.907406022174	1357.553496488504	444.172811612832	998.218319652630	1445.415412191654	611.849139995938	991.266806407331	1495.818569192158	429.903802494576	1000.934037417868	945.756685521753	591.394265646331	998.595052361537	962.729359241843	316.865646105870	1086.002643373116	782.587955103738	569.972811443541	1045.951549416708	661.498515545995	643.903204409036	1142.920415499965	625.106435928472	571.912493413797	1162.450437442504	510.262005662963	593.846527009206	1038.624375495247	752.054358039854	343.398664079028	945.607255068330	640.259076639813	285.781964692002	1024.492031557107	558.954515218813	351.257305297046	1021.598428359913	490.518243241179	362.305413999091	995.428186803835	419.876516766404	353.478808124932	907.754749911932	306.142395028017	298.430513090964	954.084994520802	195.416840639798	373.952890118333	1083.081229442435	436.213926598668	596.027923537004	956.894910005210	403.133103929607	650.283046824943	939.454027758952	295.235818031354	600.185864397958	736.856144600627	243.151970213624	564.099727916572	900.626391414391	174.615067256698	606.640183064640	790.597654773555	179.391633678859	638.112422087723	959.396848804689	59.567018985782	634.346885505834	820.841910720417	39.096694805690	408.124117255727	901.176752541322	36.193524670771	333.567489379190	982.360132284424	96.443304643326	365.694750111898	1112.528365906976	41.963796305385	348.409136518421	990.384160107620	1084.780260677878	142.031778619539	1142.639573081882	871.132986399890	159.548599714568	971.833961417843	1104.120859859602	753.378156324805	1091.291326234525	869.764344755414	763.859484963233	
55	35.253285714286	780.725976342391	1017.621165910421	467.035073018512	989.301160434443	1428.538980863511	277.305852569866	1082.201469135289	1357.639094073755	445.022354906986	997.766227537574	1445.212623839657	612.501049617236	991.782583968135	1496.031153792247	430.539248212734	1000.663608813839	946.454207484159	591.505003708353	998.803949303559	962.967407908902	316.814122168050	1087.979229311616	786.066307260467	570.095993321409	1050.048421034917	664.214822855307	643.911435041426	1147.435925091110	629.477531684580	571.755057260093	1169.602319755318	515.750137607696	593.500618469463	1035.959007974590	750.859299815794	344.519220910943	941.755923735053	640.340437138395	285.849250815867	1018.677387557764	557.903065599651	351.924102696188	1014.636090726934	489.749281983242	362.989975245186	988.592114981491	419.496904288675	353.857751660989	900.769915332383	306.046485664112	298.549150905926	946.397411806099	195.182639691349	374.277548277602	1093.362484531333	439.154158579143	596.290367310924	969.681053395483	400.018480739609	652.019964112706	956.743013199149	291.393059740029	601.909322629956	756.532879358283	229.758132088397	568.138134667828	923.573104134320	168.935919482953	608.824733665207	813.931182648940	168.638537362687	641.579373135024	988.111833081602	56.887891399683	635.887506489530	812.780937878246	39.013204359942	408.165884079256	893.129523881544	36.184650674415	333.601182748161	974.282584468789	96.405994459688	365.821550007318	1104.479353065107	42.025036793033	348.400811268550	997.869687069925	1086.995190606883	139.956082983715	1160.487655684334	881.217729057867	158.687299908665	961.377938521367	1104.870992253028	754.077838026376	1065.488765069993	863.286919334984	765.732360939499	
56	35.264642857143	780.597551860237	1017.761112392047	466.792559111694	990.627044795992	1428.972595566193	277.997696862248	1082.559511811872	1357.580198023680	446.032972203572	997.351772988516	1444.882405171111	613.285760287691	992.351058930200	1496.110733513663	431.322023961013	1000.384958737432	946.982316894367	591.806199542933	999.077305664842	962.982989038106	316.976965346086	1089.631184828998	789.042723347716	570.250743399273	1053.594325720337	666.504087787492	643.874382974122	1151.089806381065	633.137711889956	571.368589955486	1175.736866623650	520.786829609545	592.999550296917	1033.355928141031	749.588945346353	345.953486341369	938.098078130089	640.333774202215	286.001619973816	1012.998096913659	556.820094995418	352.725302121639	1007.835942121879	488.957355226625	363.754469403941	981.897772601557	419.062982303998	354.319281189835	893.916992636602	305.927392572190	298.702378147996	938.728135759855	194.901664925994	374.643899090874	1102.986151646872	441.688559436674	596.540137593115	982.405004595895	396.159400528385	653.962966289795	974.428286019661	286.954322884272	603.879307668205	777.402275272393	215.028941657726	572.675145664646	947.549083775856	162.853629298165	611.418104944773	838.608782284216	157.077186804393	645.530186730112	1018.148394530416	54.330250443282	637.864451351023	804.731926289273	38.928744261888	408.209042701515	885.087497632296	36.169910426486	333.645053940517	966.215078547242	96.354715947654	365.970939490719	1096.443445570127	42.057448806600	348.414505472931	1004.762151598729	1089.257543461530	138.087887679890	1177.674353980161	892.194787313112	158.224696854248	950.999338418806	1105.677929031884	754.472664882279	1039.816651886590	858.119805697890	766.965789295846	
